<svg xmlns="http://www.w3.org/2000/svg" version="1.1" xmlns:xlink="http://www.w3.org/1999/xlink" xmlns:svgjs="http://svgjs.dev/svgjs" width="1000" height="80" viewBox="0 0 1000 80"><g transform="matrix(1,0,0,1,-0.6060606060606233,0.2820190559869218)"><svg viewBox="0 0 396 32" data-background-color="#ffffff" preserveAspectRatio="xMidYMid meet" height="80" width="1000" xmlns="http://www.w3.org/2000/svg" xmlns:xlink="http://www.w3.org/1999/xlink"><g id="tight-bounds" transform="matrix(1,0,0,1,0.2400000000000091,-0.11280762239476871)"><svg viewBox="0 0 395.52 32.225610401854745" height="32.225610401854745" width="395.52"><g><svg viewBox="0 0 434.7335301025304 35.42059407794078" height="32.225610401854745" width="395.52"><g><rect width="2.3113355484817566" height="30.755942759427587" x="30.85157793498644" y="2.332325659256595" fill="#77d4fc" opacity="1" stroke-width="0" stroke="transparent" fill-opacity="1" class="rect-o-0" data-fill-palette-color="primary" rx="1%" id="o-0" data-palette-color="#77d4fc"></rect></g><g transform="matrix(1,0,0,1,39.213530102530385,4.895320889208893)"><svg viewBox="0 0 395.52 25.62995229952299" height="25.62995229952299" width="395.52"><g id="textblocktransform"><svg viewBox="0 0 395.52 25.62995229952299" height="25.62995229952299" width="395.52" id="textblock"><g><svg viewBox="0 0 395.52 25.62995229952299" height="25.62995229952299" width="395.52"><g transform="matrix(1,0,0,1,0,0)"><svg width="395.52" viewBox="4.050000190734863 -35.5 555.510009765625 36" height="25.62995229952299" data-palette-color="#77d4fc"><path d="M6.6-35L19.4-35Q24-35 26.38-32.75 28.75-30.5 28.75-26.2L28.75-26.2Q28.75-23.95 27.68-22.13 26.6-20.3 24.53-19.25 22.45-18.2 19.35-18.15L19.35-18.15 19.45-20Q21.1-20 23.03-19.55 24.95-19.1 26.65-18 28.35-16.9 29.45-15.03 30.55-13.15 30.55-10.35L30.55-10.35Q30.55-7.3 29.55-5.28 28.55-3.25 26.9-2.1 25.25-0.95 23.28-0.48 21.3 0 19.4 0L19.4 0 6.6 0Q5.55 0 4.8-0.73 4.05-1.45 4.05-2.55L4.05-2.55 4.05-32.45Q4.05-33.55 4.8-34.27 5.55-35 6.6-35L6.6-35ZM18.7-30.1L18.7-30.1 8.85-30.1 9.45-30.9 9.45-20.15 8.9-20.7 18.8-20.7Q20.6-20.75 21.98-21.93 23.35-23.1 23.35-25.4L23.35-25.4Q23.35-27.75 22.1-28.93 20.85-30.1 18.7-30.1ZM19.05-15.8L19.05-15.8 9.1-15.8 9.45-16.15 9.45-4.35 9.05-4.8 19.35-4.8Q21.95-4.8 23.55-6.18 25.15-7.55 25.15-10.35L25.15-10.35Q25.15-12.7 24.2-13.85 23.25-15 21.85-15.4 20.45-15.8 19.05-15.8ZM47.95-28.35L49.25-28.5 38-1.5Q37.7-0.7 37.1-0.25 36.5 0.2 35.75 0.2L35.75 0.2Q34.65 0.2 34.1-0.43 33.55-1.05 33.5-2L33.5-2Q33.5-2.35 33.65-2.8L33.65-2.8 46.35-33.5Q46.7-34.35 47.37-34.8 48.05-35.25 48.85-35.2L48.85-35.2Q49.6-35.2 50.25-34.75 50.9-34.3 51.2-33.5L51.2-33.5 63.75-3.25Q63.95-2.75 63.95-2.25L63.95-2.25Q63.95-1.15 63.22-0.48 62.5 0.2 61.6 0.2L61.6 0.2Q60.85 0.2 60.22-0.28 59.6-0.75 59.3-1.5L59.3-1.5 47.95-28.35ZM57.25-8.6L40-8.6 42.25-13.4 56.4-13.4 57.25-8.6ZM93.45-33L93.45-33Q94.55-32.45 94.72-31.3 94.9-30.15 94.15-29.2L94.15-29.2Q93.6-28.45 92.72-28.35 91.85-28.25 91-28.7L91-28.7Q89.55-29.45 87.95-29.9 86.35-30.35 84.55-30.35L84.55-30.35Q81.7-30.35 79.42-29.43 77.15-28.5 75.5-26.78 73.85-25.05 72.97-22.7 72.1-20.35 72.1-17.5L72.1-17.5Q72.1-14.35 73.05-11.93 74-9.5 75.67-7.83 77.35-6.15 79.62-5.33 81.9-4.5 84.55-4.5L84.55-4.5Q86.25-4.5 87.87-4.9 89.5-5.3 90.95-6.1L90.95-6.1Q91.85-6.55 92.72-6.43 93.6-6.3 94.15-5.55L94.15-5.55Q95-4.5 94.77-3.43 94.55-2.35 93.5-1.8L93.5-1.8Q92.25-1.1 90.75-0.6 89.25-0.1 87.7 0.2 86.15 0.5 84.55 0.5L84.55 0.5Q80.95 0.5 77.75-0.7 74.55-1.9 72.05-4.2 69.55-6.5 68.12-9.85 66.7-13.2 66.7-17.5L66.7-17.5Q66.7-21.35 68.02-24.63 69.35-27.9 71.77-30.28 74.2-32.65 77.45-33.98 80.7-35.3 84.55-35.3L84.55-35.3Q86.95-35.3 89.22-34.7 91.5-34.1 93.45-33ZM124.79 0.05L124.79 0.05Q123.64 0.05 122.94-0.9L122.94-0.9 110.49-16.95 114.34-20.85 127.04-4.3Q127.64-3.5 127.64-2.55L127.64-2.55Q127.64-1.35 126.74-0.65 125.84 0.05 124.79 0.05ZM125.04-35.15L125.04-35.15Q126.04-35.15 126.69-34.35 127.34-33.55 127.34-32.7L127.34-32.7Q127.34-31.8 126.59-31.05L126.59-31.05 105.04-10.6 104.74-16.5 123.04-34.2Q123.94-35.15 125.04-35.15ZM102.99 0L102.99 0Q101.84 0 101.12-0.73 100.39-1.45 100.39-2.55L100.39-2.55 100.39-32.45Q100.39-33.55 101.14-34.27 101.89-35 103.09-35L103.09-35Q104.24-35 104.94-34.27 105.64-33.55 105.64-32.45L105.64-32.45 105.64-2.55Q105.59-1.45 104.89-0.73 104.19 0 102.99 0ZM136.49 0L136.49 0Q135.29 0 134.39-0.73 133.49-1.45 133.49-2.55L133.49-2.55 133.49-32.45Q133.49-33.55 134.24-34.27 134.99-35 136.04-35L136.04-35 150.14-35Q152.84-35 155.09-33.68 157.34-32.35 158.72-30.03 160.09-27.7 160.09-24.7L160.09-24.7Q160.09-22.7 159.29-20.88 158.49-19.05 157.14-17.65 155.79-16.25 154.09-15.55L154.09-15.55 153.54-16.5Q155.09-15.95 156.24-14.93 157.39-13.9 158.07-12.53 158.74-11.15 158.79-9.4L158.79-9.4Q158.94-7.85 159.07-6.83 159.19-5.8 159.44-5.15 159.69-4.5 160.34-4.15L160.34-4.15Q161.24-3.65 161.47-2.65 161.69-1.65 161.04-0.85L161.04-0.85Q160.59-0.25 159.92-0.08 159.24 0.1 158.54-0.03 157.84-0.15 157.34-0.4L157.34-0.4Q156.54-0.9 155.72-1.83 154.89-2.75 154.39-4.4 153.89-6.05 153.89-8.75L153.89-8.75Q153.89-10 153.49-10.9 153.09-11.8 152.39-12.38 151.69-12.95 150.74-13.23 149.79-13.5 148.64-13.5L148.64-13.5 138.04-13.5 138.74-14.5 138.74-2.55Q138.74-1.45 138.14-0.73 137.54 0 136.49 0ZM138.74-16.8L138.09-17.85 150.04-17.85Q151.19-17.9 152.27-18.78 153.34-19.65 154.02-21.15 154.69-22.65 154.69-24.55L154.69-24.55Q154.69-26.95 153.27-28.58 151.84-30.2 149.89-30.2L149.89-30.2 138.19-30.2 138.74-31.5 138.74-16.8ZM198.94-17.5L198.94-17.5Q198.94-13.7 197.69-10.43 196.44-7.15 194.16-4.7 191.89-2.25 188.79-0.88 185.69 0.5 181.99 0.5L181.99 0.5Q178.34 0.5 175.24-0.88 172.14-2.25 169.86-4.7 167.59-7.15 166.36-10.43 165.14-13.7 165.14-17.5L165.14-17.5Q165.14-21.3 166.36-24.58 167.59-27.85 169.86-30.3 172.14-32.75 175.24-34.13 178.34-35.5 181.99-35.5L181.99-35.5Q185.69-35.5 188.79-34.13 191.89-32.75 194.16-30.3 196.44-27.85 197.69-24.58 198.94-21.3 198.94-17.5ZM193.54-17.5L193.54-17.5Q193.54-21.2 192.06-24.15 190.59-27.1 187.99-28.8 185.39-30.5 181.99-30.5L181.99-30.5Q178.64-30.5 176.04-28.8 173.44-27.1 171.99-24.18 170.54-21.25 170.54-17.5L170.54-17.5Q170.54-13.8 171.99-10.85 173.44-7.9 176.04-6.2 178.64-4.5 181.99-4.5L181.99-4.5Q185.39-4.5 187.99-6.2 190.59-7.9 192.06-10.85 193.54-13.8 193.54-17.5ZM216.04-28.35L217.34-28.5 206.09-1.5Q205.79-0.7 205.19-0.25 204.59 0.2 203.84 0.2L203.84 0.2Q202.74 0.2 202.19-0.43 201.64-1.05 201.59-2L201.59-2Q201.59-2.35 201.74-2.8L201.74-2.8 214.44-33.5Q214.79-34.35 215.46-34.8 216.14-35.25 216.94-35.2L216.94-35.2Q217.69-35.2 218.34-34.75 218.99-34.3 219.29-33.5L219.29-33.5 231.84-3.25Q232.04-2.75 232.04-2.25L232.04-2.25Q232.04-1.15 231.31-0.48 230.59 0.2 229.69 0.2L229.69 0.2Q228.94 0.2 228.31-0.28 227.69-0.75 227.39-1.5L227.39-1.5 216.04-28.35ZM225.34-8.6L208.09-8.6 210.34-13.4 224.49-13.4 225.34-8.6ZM239.48-35L251.68-35Q255.33-35 258.13-33.63 260.93-32.25 262.81-29.83 264.68-27.4 265.63-24.23 266.58-21.05 266.58-17.5L266.58-17.5Q266.58-12.65 264.88-8.68 263.18-4.7 259.88-2.35 256.58 0 251.68 0L251.68 0 239.48 0Q238.43 0 237.68-0.73 236.93-1.45 236.93-2.55L236.93-2.55 236.93-32.45Q236.93-33.55 237.68-34.27 238.43-35 239.48-35L239.48-35ZM241.88-4.8L251.18-4.8Q254.73-4.8 256.93-6.55 259.13-8.3 260.16-11.18 261.18-14.05 261.18-17.5L261.18-17.5Q261.18-20.05 260.61-22.33 260.03-24.6 258.81-26.38 257.58-28.15 255.71-29.18 253.83-30.2 251.18-30.2L251.18-30.2 241.73-30.2 242.18-30.65 242.18-4.3 241.88-4.8ZM283.48 0.5L283.48 0.5Q279.88 0.5 277.08-0.5 274.28-1.5 271.73-3.8L271.73-3.8Q271.18-4.2 270.91-4.78 270.63-5.35 270.63-5.95L270.63-5.95Q270.63-6.9 271.33-7.65 272.03-8.4 273.08-8.4L273.08-8.4Q273.88-8.4 274.58-7.85L274.58-7.85Q276.48-6.1 278.56-5.2 280.63-4.3 283.43-4.3L283.43-4.3Q285.43-4.3 287.11-4.95 288.78-5.6 289.78-6.7 290.78-7.8 290.78-9.25L290.78-9.25Q290.78-11.05 289.76-12.23 288.73-13.4 286.81-14.18 284.88-14.95 282.18-15.5L282.18-15.5Q279.68-15.95 277.71-16.75 275.73-17.55 274.33-18.78 272.93-20 272.18-21.7 271.43-23.4 271.43-25.65L271.43-25.65Q271.43-28.7 273.03-30.9 274.63-33.1 277.38-34.3 280.13-35.5 283.58-35.5L283.58-35.5Q286.73-35.5 289.48-34.52 292.23-33.55 293.93-31.9L293.93-31.9Q295.13-30.85 295.13-29.65L295.13-29.65Q295.13-28.75 294.41-27.98 293.68-27.2 292.73-27.2L292.73-27.2Q292.03-27.2 291.53-27.6L291.53-27.6Q290.73-28.45 289.38-29.13 288.03-29.8 286.51-30.25 284.98-30.7 283.58-30.7L283.58-30.7Q281.33-30.7 279.73-30.08 278.13-29.45 277.28-28.38 276.43-27.3 276.43-25.85L276.43-25.85Q276.43-24.15 277.41-23.05 278.38-21.95 280.13-21.28 281.88-20.6 284.13-20.05L284.13-20.05Q286.88-19.45 289.06-18.7 291.23-17.95 292.73-16.78 294.23-15.6 295.03-13.85 295.83-12.1 295.83-9.5L295.83-9.5Q295.83-6.5 294.13-4.25 292.43-2 289.66-0.75 286.88 0.5 283.48 0.5ZM318.43-35L331.23-35Q335.83-35 338.2-32.75 340.58-30.5 340.58-26.2L340.58-26.2Q340.58-23.95 339.5-22.13 338.43-20.3 336.35-19.25 334.28-18.2 331.18-18.15L331.18-18.15 331.28-20Q332.93-20 334.85-19.55 336.78-19.1 338.48-18 340.18-16.9 341.28-15.03 342.38-13.15 342.38-10.35L342.38-10.35Q342.38-7.3 341.38-5.28 340.38-3.25 338.73-2.1 337.08-0.95 335.1-0.48 333.13 0 331.23 0L331.23 0 318.43 0Q317.38 0 316.63-0.73 315.88-1.45 315.88-2.55L315.88-2.55 315.88-32.45Q315.88-33.55 316.63-34.27 317.38-35 318.43-35L318.43-35ZM330.53-30.1L330.53-30.1 320.68-30.1 321.28-30.9 321.28-20.15 320.73-20.7 330.63-20.7Q332.43-20.75 333.8-21.93 335.18-23.1 335.18-25.4L335.18-25.4Q335.18-27.75 333.93-28.93 332.68-30.1 330.53-30.1ZM330.88-15.8L330.88-15.8 320.93-15.8 321.28-16.15 321.28-4.35 320.88-4.8 331.18-4.8Q333.78-4.8 335.38-6.18 336.98-7.55 336.98-10.35L336.98-10.35Q336.98-12.7 336.03-13.85 335.08-15 333.68-15.4 332.28-15.8 330.88-15.8ZM369.27-35.15L369.27-35.15Q370.22-35.15 371-34.43 371.77-33.7 371.77-32.6L371.77-32.6Q371.77-32.2 371.65-31.83 371.52-31.45 371.27-31.05L371.27-31.05 359.82-14.85 360.62-17.8 360.62-2.55Q360.62-1.45 359.87-0.73 359.12 0 358.17 0L358.17 0Q357.12 0 356.4-0.73 355.67-1.45 355.67-2.55L355.67-2.55 355.67-17.4 356.02-15.95 344.97-30.7Q344.57-31.25 344.42-31.73 344.27-32.2 344.27-32.65L344.27-32.65Q344.27-33.75 345.15-34.45 346.02-35.15 346.92-35.15L346.92-35.15Q348.12-35.15 348.97-34L348.97-34 358.97-20.3 357.77-20.45 367.17-33.95Q368.02-35.15 369.27-35.15ZM401.72-28.35L403.02-28.5 391.77-1.5Q391.47-0.7 390.87-0.25 390.27 0.2 389.52 0.2L389.52 0.2Q388.42 0.2 387.87-0.43 387.32-1.05 387.27-2L387.27-2Q387.27-2.35 387.42-2.8L387.42-2.8 400.12-33.5Q400.47-34.35 401.14-34.8 401.82-35.25 402.62-35.2L402.62-35.2Q403.37-35.2 404.02-34.75 404.67-34.3 404.97-33.5L404.97-33.5 417.52-3.25Q417.72-2.75 417.72-2.25L417.72-2.25Q417.72-1.15 416.99-0.48 416.27 0.2 415.37 0.2L415.37 0.2Q414.62 0.2 413.99-0.28 413.37-0.75 413.07-1.5L413.07-1.5 401.72-28.35ZM411.02-8.6L393.77-8.6 396.02-13.4 410.17-13.4 411.02-8.6ZM448.87-35L448.87-35Q449.87-35 450.49-34.33 451.12-33.65 451.12-32.65L451.12-32.65 451.12-2.55Q451.12-1.45 450.39-0.73 449.67 0 448.57 0L448.57 0Q448.07 0 447.49-0.2 446.92-0.4 446.62-0.75L446.62-0.75 426.07-27.4 427.22-28.05 427.22-2.3Q427.22-1.35 426.57-0.68 425.92 0 424.92 0L424.92 0Q423.87 0 423.24-0.68 422.62-1.35 422.62-2.3L422.62-2.3 422.62-32.45Q422.62-33.6 423.37-34.3 424.12-35 425.17-35L425.17-35Q425.72-35 426.34-34.77 426.97-34.55 427.27-34.1L427.27-34.1 447.32-8 446.57-7.3 446.57-32.65Q446.57-33.65 447.22-34.33 447.87-35 448.87-35ZM464.51-32.45L464.51-2.55Q464.46-1.45 463.69-0.73 462.91 0 461.86 0L461.86 0Q460.71 0 459.99-0.73 459.26-1.45 459.26-2.55L459.26-2.55 459.26-32.45Q459.26-33.55 460.01-34.27 460.76-35 461.96-35L461.96-35Q462.96-35 463.74-34.27 464.51-33.55 464.51-32.45L464.51-32.45ZM497.01 0.05L497.01 0.05Q495.86 0.05 495.16-0.9L495.16-0.9 482.71-16.95 486.56-20.85 499.26-4.3Q499.86-3.5 499.86-2.55L499.86-2.55Q499.86-1.35 498.96-0.65 498.06 0.05 497.01 0.05ZM497.26-35.15L497.26-35.15Q498.26-35.15 498.91-34.35 499.56-33.55 499.56-32.7L499.56-32.7Q499.56-31.8 498.81-31.05L498.81-31.05 477.26-10.6 476.96-16.5 495.26-34.2Q496.16-35.15 497.26-35.15ZM475.21 0L475.21 0Q474.06 0 473.34-0.73 472.61-1.45 472.61-2.55L472.61-2.55 472.61-32.45Q472.61-33.55 473.36-34.27 474.11-35 475.31-35L475.31-35Q476.46-35 477.16-34.27 477.86-33.55 477.86-32.45L477.86-32.45 477.86-2.55Q477.81-1.45 477.11-0.73 476.41 0 475.21 0ZM508.26-35L508.26-35 525.56-35Q526.61-35 527.33-34.3 528.06-33.6 528.06-32.55L528.06-32.55Q528.06-31.5 527.33-30.85 526.61-30.2 525.56-30.2L525.56-30.2 510.46-30.2 510.96-31.05 510.96-19.85 510.51-20.35 523.31-20.35Q524.36-20.35 525.08-19.65 525.81-18.95 525.81-17.85L525.81-17.85Q525.81-16.8 525.08-16.15 524.36-15.5 523.31-15.5L523.31-15.5 510.61-15.5 510.96-15.95 510.96-4.4 510.61-4.8 525.56-4.8Q526.61-4.8 527.33-4.08 528.06-3.35 528.06-2.4L528.06-2.4Q528.06-1.35 527.33-0.68 526.61 0 525.56 0L525.56 0 508.26 0Q507.21 0 506.46-0.73 505.71-1.45 505.71-2.55L505.71-2.55 505.71-32.45Q505.71-33.55 506.46-34.27 507.21-35 508.26-35ZM545.66 0L545.66 0Q544.46 0 543.73-0.73 543-1.45 543-2.55L543-2.55 543-32.5 548.36-32.5 548.36-2.55Q548.36-1.45 547.58-0.73 546.81 0 545.66 0ZM557.06-30.2L534.31-30.2Q533.25-30.2 532.5-30.88 531.75-31.55 531.75-32.65L531.75-32.65Q531.75-33.7 532.5-34.35 533.25-35 534.31-35L534.31-35 557.06-35Q558.11-35 558.83-34.33 559.56-33.65 559.56-32.6L559.56-32.6Q559.56-31.5 558.83-30.85 558.11-30.2 557.06-30.2L557.06-30.2Z" opacity="1" transform="matrix(1,0,0,1,0,0)" fill="#77d4fc" class="wordmark-text-0" data-fill-palette-color="primary" id="text-0"></path></svg></g></svg></g></svg></g></svg></g><g><svg viewBox="0 0 24.80096131592425 35.42059407794078" height="35.42059407794078" width="24.80096131592425"><g><svg xmlns="http://www.w3.org/2000/svg" xmlns:xlink="http://www.w3.org/1999/xlink" version="1.1" x="0" y="0" viewBox="8.530095100402832 0 35.262001037597656 50.360992431640625" enable-background="new 0 0 50.4 50.4" xml:space="preserve" width="24.80096131592425" height="35.42059407794078" class="icon-icon-0" data-fill-palette-color="accent" id="icon-0"><g fill="#4b91f1" data-fill-palette-color="accent"><path d="M38.194 4.086c0 2.258-1.827 4.088-4.087 4.088-2.256 0-4.084-1.83-4.084-4.088C30.023 1.83 31.852 0 34.107 0 36.367 0 38.194 1.83 38.194 4.086z" fill="#4b91f1" data-fill-palette-color="accent"></path><path d="M42.756 21.287l-6.663-2.373-2.99-8.208c-0.743-1.434-1.938-2.432-3.346-2.691C26.453 7.398 25.3 11.17 25.3 11.17L22.84 21.507l6.98-4.072-0.634-1.371c-0.139-0.299-0.008-0.652 0.29-0.787 0.297-0.141 0.65-0.011 0.789 0.289l0.833 1.797c0.001 0.005 0.005 0.008 0.007 0.011 0.007 0.009 0.007 0.019 0.01 0.029l1.609 3.469 0.161 0.329c0.095 0.185 0.434 0.532 0.751 0.662l6.471 2.469-4.133 7.105-5.419-5.088 1.085-4.983-1.318-2.847-7.863 4.587-3.043 12.777-6.442 10.079c-0.238 0.335-0.359 0.735-0.359 1.213-0.094 0.807 0.121 1.507 0.643 2.105 0.521 0.593 1.19 0.936 1.997 1.034 1.189 0.092 2.093-0.384 2.71-1.429l6.872-10.785c0.141-0.288 0.331-0.688 0.571-1.219l1.364-5.755 6.352 5.21-7.507 12.905c-0.205 0.354-0.085 0.81 0.268 1.017 0.118 0.07 0.245 0.103 0.373 0.103 0.256 0 0.506-0.134 0.644-0.371l6.414-11.028-0.009 8.743c0.288 1.38 1.167 2.141 2.641 2.285 0.808 0.048 1.509-0.189 2.104-0.713 0.593-0.528 0.914-1.168 0.96-1.927 0-0.145 0-0.355 0-0.643l-0.053-10.905c0-0.861-0.199-1.72-0.747-2.266l-1.121-1.059 4.471-7.69c1.187 0.071 2.041-0.605 2.214-1.779C43.891 22.235 43.373 21.519 42.756 21.287z" fill="#4b91f1" data-fill-palette-color="accent"></path><path d="M19.716 1.049c-3.231-0.784-6.476 1.201-7.255 4.427L9.842 16.304l8.814 2.19-0.29 1.167-8.808-2.188-0.854 3.529c-0.628 2.582 0.458 3.834 3.045 4.501 0.378 0.099 4.516 1.052 6.166 1.432l-0.653 2.617c-0.101 0.4 0.144 0.81 0.547 0.91 0.063 0.016 0.26 0.058 0.322 0.058 0.335-0.003 0.637-0.23 0.722-0.57l5.29-21.646C24.922 5.078 22.942 1.829 19.716 1.049zM20.1 13.484l-6.405-1.601 1.297-5.373 1.071 0.258-1.041 4.311 4.279 1.069 1.075-4.266 1.068 0.269L20.1 13.484z" fill="#4b91f1" data-fill-palette-color="accent"></path></g></svg></g></svg></g></svg></g><defs></defs></svg><rect width="395.52" height="32.225610401854745" fill="none" stroke="none" visibility="hidden"></rect></g></svg></g></svg>